<?xml version="1.0" standalone="no"?>
<!DOCTYPE svg PUBLIC "-//W3C//DTD SVG 20010904//EN"
 "http://www.w3.org/TR/2001/REC-SVG-20010904/DTD/svg10.dtd">
<svg version="1.0" xmlns="http://www.w3.org/2000/svg"
 width="257.000000pt" height="257.000000pt" viewBox="0 0 257.000000 257.000000"
 preserveAspectRatio="xMidYMid meet">
<metadata>
Created by potrace 1.14, written by Peter Selinger 2001-2017
</metadata>
<g transform="translate(0.000000,257.000000) scale(0.100000,-0.100000)"
fill="#000000" stroke="none">
<path d="M1295 2530 c-27 -22 -56 -40 -63 -40 -7 0 -37 16 -68 37 l-55 36 -51
-55 -51 -56 -67 28 -67 28 -38 -59 c-21 -33 -40 -61 -44 -63 -3 -2 -36 2 -74
9 -77 14 -70 19 -102 -72 l-19 -52 -75 -3 -75 -3 -11 -63 c-7 -34 -9 -64 -7
-67 7 -7 -20 -16 -86 -29 l-57 -11 -3 -70 c-2 -38 -7 -74 -13 -80 -5 -5 -35
-19 -67 -31 -31 -12 -56 -26 -55 -32 31 -146 33 -134 -35 -177 l-61 -37 15
-37 c28 -64 34 -82 34 -96 0 -7 -22 -35 -50 -61 l-49 -46 39 -59 c22 -32 40
-62 40 -66 0 -4 -18 -32 -40 -62 l-39 -55 36 -40 c20 -23 44 -46 52 -53 14
-10 12 -19 -15 -81 l-31 -69 58 -39 c32 -21 59 -46 59 -54 0 -8 -6 -41 -14
-72 -15 -66 -17 -65 66 -97 l56 -23 -3 -73 c-3 -63 -1 -75 13 -79 9 -2 41 -10
70 -16 28 -7 54 -15 57 -19 4 -7 17 -99 18 -128 0 -9 19 -13 56 -14 100 -2 94
2 120 -72 l24 -68 41 5 c23 3 55 9 73 12 30 6 34 3 60 -41 51 -85 41 -81 119
-55 l68 23 51 -57 c43 -48 53 -54 65 -43 8 8 36 26 62 40 l46 27 58 -45 58
-45 25 22 c14 13 39 35 55 50 l29 27 58 -30 c32 -16 64 -29 71 -29 7 0 23 15
36 33 12 17 31 42 41 55 l19 22 64 -20 c34 -11 66 -20 69 -20 4 0 22 29 40 66
l34 65 74 -3 75 -3 16 64 c17 71 17 71 123 86 l47 6 1 47 c0 44 7 94 12 98 1
1 31 10 67 21 58 17 65 22 63 43 0 14 -3 48 -5 75 l-3 50 57 30 c31 17 59 33
62 36 3 3 -3 36 -14 74 l-20 70 32 25 c18 14 44 34 57 46 l24 21 -31 58 c-18
32 -32 63 -32 68 0 5 20 33 45 62 l45 52 -47 57 -47 57 38 70 c21 38 34 69 29
69 -4 0 -30 20 -57 43 l-49 43 23 68 c26 78 33 64 -60 117 -25 14 -44 29 -43
35 1 5 4 38 8 74 l7 65 -59 18 c-83 25 -83 25 -85 101 -1 38 -7 70 -12 72 -17
6 -68 12 -103 13 -29 1 -33 5 -43 44 -6 23 -16 56 -21 73 l-10 32 -72 -5 -72
-5 -30 62 c-16 34 -33 64 -37 66 -4 3 -37 -3 -74 -13 -65 -17 -66 -17 -80 2
-13 18 -23 33 -59 82 -13 18 -20 16 -118 -34 -26 -13 -29 -12 -80 37 -28 27
-54 50 -57 50 -3 0 -27 -18 -55 -40z"/>
</g>
</svg>
